<?xml version="1.0" standalone="no"?><!DOCTYPE svg PUBLIC "-//W3C//DTD SVG 1.1//EN" "http://www.w3.org/Graphics/SVG/1.1/DTD/svg11.dtd"><svg t="1743501547372" class="icon" viewBox="0 0 1024 1024" version="1.1" xmlns="http://www.w3.org/2000/svg" p-id="2608" xmlns:xlink="http://www.w3.org/1999/xlink" width="64" height="64"><path d="M195.2 195.2c-174.6 174.6-174.6 458.9 0 633.6s458.9 174.6 633.6 0 174.6-458.9 0-633.6-458.9-174.6-633.6 0z m598.4 598.4c-155.3 155.3-407.9 155.3-563.2 0s-155.3-407.9 0-563.2 407.9-155.3 563.2 0 155.2 407.9 0 563.2z" p-id="2609" fill="#ffffff"></path><path d="M652.8 336L512 476.8 371.2 336c-9.8-9.6-25.5-9.5-35.2 0.3-9.6 9.7-9.6 25.3 0 34.9L476.8 512 336 652.8c-9.6 9.8-9.5 25.5 0.3 35.2 9.7 9.6 25.3 9.6 34.9 0L512 547.2 652.8 688c9.8 9.6 25.5 9.5 35.2-0.3 9.6-9.7 9.6-25.3 0-34.9L547.2 512 688 371.2c9.6-9.8 9.5-25.5-0.3-35.2-9.7-9.5-25.2-9.5-34.9 0z" p-id="2610" fill="#ffffff"></path></svg>